<svg width="16" height="16" viewBox="0 0 16 16" fill="none" xmlns="http://www.w3.org/2000/svg">
<rect width="16" height="16" fill="#F5F5F5"/>
<g id="Home Page">
<rect width="1440" height="2188" transform="translate(-490 -68)" fill="white"/>
<rect id="Rectangle 2" x="-490" y="-28" width="1440" height="72" fill="#202020"/>
<g id="Group 3">
<rect id="Rectangle 5" x="-7.5" y="-11.5" width="459" height="39" rx="3.5" stroke="#444444"/>
<g id="search-2-line">
<path id="Vector" d="M7.33337 1.33331C10.6454 1.33331 13.3334 4.02131 13.3334 7.33331C13.3334 10.6453 10.6454 13.3333 7.33337 13.3333C4.02137 13.3333 1.33337 10.6453 1.33337 7.33331C1.33337 4.02131 4.02137 1.33331 7.33337 1.33331ZM7.33337 12C9.91171 12 12 9.91165 12 7.33331C12 4.75498 9.91171 2.66665 7.33337 2.66665C4.75504 2.66665 2.66671 4.75498 2.66671 7.33331C2.66671 9.91165 4.75504 12 7.33337 12ZM12.9902 12.0474L14.8758 13.933L13.933 14.8758L12.0474 12.9902L12.9902 12.0474Z" fill="#A1A1A1"/>
</g>
</g>
</g>
</svg>
