<svg width="32" height="22" viewBox="0 0 32 22" fill="none" xmlns="http://www.w3.org/2000/svg">
<path d="M32 18.6664H0V21.3329H32V18.6664Z" fill="#D80027"/>
<path d="M32 0H0V21.3336H32V0Z" fill="#F0F0F0"/>
<path d="M32 2.66638H0V5.33282H32V2.66638Z" fill="#D80027"/>
<path d="M32 7.99994H0V10.6664H32V7.99994Z" fill="#D80027"/>
<path d="M32 13.3328H0V15.9993H32V13.3328Z" fill="#D80027"/>
<path d="M16 0H0V11.4873H16V0Z" fill="#2E52B2"/>
<path d="M6.23889 4.70581L5.9812 5.49856H5.14771L5.82214 5.98825L5.56446 6.78094L6.23889 6.29125L6.91289 6.78094L6.65527 5.98825L7.32971 5.49856H6.49614L6.23889 4.70581Z" fill="#F0F0F0"/>
<path d="M6.49614 8.35928L6.23889 7.56659L5.9812 8.35928H5.14771L5.82214 8.84903L5.56446 9.64171L6.23889 9.15196L6.91289 9.64171L6.65527 8.84903L7.32971 8.35928H6.49614Z" fill="#F0F0F0"/>
<path d="M2.9735 8.35928L2.71619 7.56659L2.4585 8.35928H1.625L2.29944 8.84903L2.04175 9.64171L2.71619 9.15196L3.39025 9.64171L3.13263 8.84903L3.80694 8.35928H2.9735Z" fill="#F0F0F0"/>
<path d="M2.71619 4.70581L2.4585 5.49856H1.625L2.29944 5.98825L2.04175 6.78094L2.71619 6.29125L3.39025 6.78094L3.13263 5.98825L3.80694 5.49856H2.9735L2.71619 4.70581Z" fill="#F0F0F0"/>
<path d="M6.23889 1.84491L5.9812 2.63772H5.14771L5.82214 3.12747L5.56446 3.92016L6.23889 3.43041L6.91289 3.92016L6.65527 3.12747L7.32971 2.63772H6.49614L6.23889 1.84491Z" fill="#F0F0F0"/>
<path d="M2.71631 1.84491L2.45862 2.63772H1.62512L2.29956 3.12747L2.04187 3.92016L2.71631 3.43041L3.39037 3.92016L3.13275 3.12747L3.80706 2.63772H2.97362L2.71631 1.84491Z" fill="#F0F0F0"/>
<path d="M9.76141 4.70581L9.50379 5.49856H8.67029L9.34466 5.98825L9.0871 6.78094L9.76141 6.29125L10.4355 6.78094L10.1778 5.98825L10.8523 5.49856H10.0188L9.76141 4.70581Z" fill="#F0F0F0"/>
<path d="M10.0188 8.35928L9.76141 7.56659L9.50379 8.35928H8.67029L9.34466 8.84903L9.0871 9.64171L9.76141 9.15196L10.4355 9.64171L10.1778 8.84903L10.8523 8.35928H10.0188Z" fill="#F0F0F0"/>
<path d="M13.5414 8.35928L13.2841 7.56659L13.0264 8.35928H12.193L12.8673 8.84903L12.6097 9.64171L13.2841 9.15196L13.9582 9.64171L13.7005 8.84903L14.3749 8.35928H13.5414Z" fill="#F0F0F0"/>
<path d="M13.2841 4.70581L13.0264 5.49856H12.193L12.8673 5.98825L12.6097 6.78094L13.2841 6.29125L13.9582 6.78094L13.7005 5.98825L14.3749 5.49856H13.5414L13.2841 4.70581Z" fill="#F0F0F0"/>
<path d="M9.76141 1.84491L9.50379 2.63772H8.67029L9.34466 3.12747L9.0871 3.92016L9.76141 3.43041L10.4355 3.92016L10.1778 3.12747L10.8523 2.63772H10.0188L9.76141 1.84491Z" fill="#F0F0F0"/>
<path d="M13.2841 1.84491L13.0264 2.63772H12.193L12.8673 3.12747L12.6097 3.92016L13.2841 3.43041L13.9582 3.92016L13.7005 3.12747L14.3749 2.63772H13.5414L13.2841 1.84491Z" fill="#F0F0F0"/>
</svg>
