<svg width="26" height="32" viewBox="0 0 26 32" fill="none" xmlns="http://www.w3.org/2000/svg">
<path d="M17.6654 25.2155C17.5559 25.125 17.6344 24.9585 17.6619 24.5995C17.6899 24.24 17.5219 24.5995 17.5219 24.5995C17.0849 25.042 16.9354 25.407 16.9354 25.407C16.8304 26.294 16.2259 27.315 15.2894 28.1755C14.3504 29.035 13.3339 29.548 13.2304 29.6415C13.1916 29.6757 13.143 29.6968 13.0914 29.702V29.6995C13.0914 29.6995 13.0529 29.707 13.0039 29.709C12.9544 29.7065 12.9174 29.6995 12.9174 29.6995V29.702C12.8655 29.6971 12.8165 29.676 12.7774 29.6415C12.6739 29.5475 11.6569 29.035 10.7184 28.1755C9.78094 27.3145 9.17744 26.294 9.07194 25.407C9.07194 25.407 8.92244 25.0425 8.48544 24.5995C8.48544 24.5995 8.31894 24.24 8.34694 24.5995C8.37444 24.959 8.45144 25.1255 8.34344 25.2155C7.94744 25.5415 7.56794 25.7925 7.63044 26.2365C7.69244 26.679 7.81844 27.0065 7.94244 27.1415C8.06744 27.275 8.36044 27.4595 8.36044 27.4595C8.36044 27.4595 7.48444 26.024 8.17194 26.0815C8.17194 26.0815 8.50544 26.062 8.90194 26.8135C9.29644 27.564 9.21294 27.7765 9.48594 28.103C9.75594 28.4305 10.0274 28.7975 10.1319 28.912C10.2359 29.027 10.3599 28.912 10.2359 29.027C10.1094 29.1435 10.0274 29.1435 10.0484 29.4125C10.0694 29.683 10.1094 30.434 10.1939 30.549C10.2764 30.6655 10.3804 30.7415 10.4429 30.549C10.5054 30.356 10.4649 29.683 10.9019 29.7205C11.3399 29.7585 11.5279 29.933 11.6319 30.029C11.7354 30.126 12.0484 30.28 12.0484 30.28C12.0484 30.28 11.0259 31.223 11.0479 31.474C11.0689 31.7235 10.9849 31.839 11.1099 31.897C11.2364 31.954 11.6324 31.7995 11.9444 31.53C12.2564 31.261 12.6869 30.8775 12.9309 30.8385H13.0759C13.3194 30.8775 13.7514 31.261 14.0629 31.53C14.3749 31.7995 14.7714 31.954 14.8964 31.897C15.0214 31.839 14.9384 31.7235 14.9584 31.474C14.9794 31.223 13.9579 30.28 13.9579 30.28C13.9579 30.28 14.2724 30.126 14.3754 30.029C14.4799 29.933 14.6684 29.759 15.1054 29.7205C15.5434 29.6825 15.5024 30.356 15.5639 30.549C15.6269 30.7415 15.7309 30.6655 15.8149 30.549C15.8974 30.434 15.9389 29.683 15.9609 29.4125C15.9819 29.143 15.8969 29.143 15.7734 29.027C15.6469 28.912 15.7734 29.027 15.8749 28.912C15.9819 28.7975 16.2514 28.43 16.5219 28.103C16.7934 27.776 16.7104 27.564 17.1059 26.8135C17.5019 26.0615 17.8359 26.0815 17.8359 26.0815C18.5229 26.024 17.6479 27.4595 17.6479 27.4595C17.6479 27.4595 17.9399 27.275 18.0649 27.1415C18.1899 27.0065 18.3159 26.679 18.3774 26.2365C18.4409 25.7925 18.0604 25.5415 17.6654 25.2155Z" fill="#0078FF"/>
<path d="M12.8055 2.3615C13.0565 2.4115 13.194 2.7465 13.194 2.7465V4.236C16.0285 2.98 16.3625 3.2335 16.3625 3.2335C16.3625 3.2335 15.834 3.7225 16.2785 4.414C16.723 5.1085 18.213 4.7515 18.213 4.7515C18.1015 5.676 19.946 6.2135 21.1135 5.725C22.2805 5.238 23.7815 5.57 23.7815 5.57C23.113 4.62 20.0865 5.2885 19.4735 4.9285C18.8635 4.569 20.4465 4.0555 20.4465 4.0555C20.4465 4.0555 19.2245 4.287 18.2235 4.0555C17.2245 3.8235 18.53 3.3885 18.53 3.3885C17.946 3.3885 17.7245 3.003 17.7245 3.003C17.53 2.2325 19.169 2.1315 19.169 2.1315C17.2515 1.6925 16.2785 2.5155 15.278 2.6435C14.2775 2.7725 14.5145 2.2075 14.5145 2.2075C14.722 1.4625 16.2235 1.449 16.2235 1.449C15.445 1.075 14.3615 1.4115 14.028 1.437C13.694 1.4625 13.8075 1.437 13.8075 1.437L12.8055 0H12.7085L11.71 1.4365C11.71 1.4365 11.821 1.462 11.4865 1.4365C11.153 1.411 10.07 1.0745 9.29098 1.4485C9.29098 1.4485 10.792 1.462 11 2.207C11 2.207 11.237 2.772 10.2365 2.643C9.23498 2.515 8.26198 1.692 6.34498 2.131C6.34498 2.131 7.98448 2.232 7.79048 3.0025C7.79048 3.0025 7.56798 3.388 6.98498 3.388C6.98498 3.388 8.29098 3.8235 7.28998 4.055C6.28848 4.2865 5.06648 4.055 5.06648 4.055C5.06648 4.055 6.65098 4.5685 6.03948 4.928C5.42848 5.2875 2.39998 4.6195 1.73198 5.5695C1.73198 5.5695 3.23248 5.2375 4.39948 5.7245C5.56648 6.213 7.41248 5.6755 7.30048 4.751C7.30048 4.751 8.79048 5.1085 9.23398 4.4135C9.67898 3.722 9.15098 3.233 9.15098 3.233C9.15098 3.233 9.48548 2.9795 12.3205 4.2355V2.7465C12.3205 2.7465 12.459 2.4115 12.708 2.3615H12.8055ZM4.28898 6.52C4.28898 6.52 3.87298 5.8795 3.31648 6.135C2.76148 6.3925 2.84498 7.136 2.84498 7.136C2.84498 7.136 0.341981 9.371 0.814981 11.1675C0.814981 11.1675 0.898482 11.5275 1.45448 11.784L1.50998 12.375C1.50998 12.375 2.14998 12.453 2.01048 12.889C1.87198 13.3265 1.64898 15.251 1.73248 16.3305C1.81648 17.4075 1.73248 18.2055 1.73248 18.2055C1.73248 18.2055 0.815481 18.2815 0.926481 19.1035C1.03948 19.926 2.28948 19.823 2.64898 19.283C3.01148 18.745 3.67848 16.255 5.98498 16.69C5.98498 16.69 5.55098 15.3805 2.85498 16.4595C2.85498 16.4595 2.21548 10.9885 5.91248 10.0385C5.91248 10.0385 5.10598 9.7065 3.93848 10.066C3.93848 10.066 3.77248 9.3965 2.77198 9.372C2.77198 9.372 3.09398 7.882 4.34498 7.1645C4.34498 7.1645 5.12098 7.292 5.31798 6.9065C5.51198 6.52 4.28898 6.52 4.28898 6.52Z" fill="#0078FF"/>
<path d="M0.898957 13.094C0.599957 13.094 0.454957 13.53 0.511957 13.814C0.566957 14.0955 0.898957 14.7905 0.898957 14.7905C0.898957 14.7905 0.926957 14.1475 1.06596 13.943C1.20546 13.735 1.48196 13.094 0.898957 13.094ZM11.514 8.884C11.514 8.884 9.54146 7.164 9.06896 7.164C8.59596 7.164 7.81846 8.0615 7.56846 8.7035C7.31796 9.3465 7.01196 10.5275 8.29146 11.117C9.56946 11.7075 9.76346 11.8375 9.81846 12.144C9.87346 12.453 9.92946 13.069 9.42896 13.479C8.93096 13.8895 7.79096 14.916 8.23646 16.1235C8.67946 17.331 9.68046 19.128 11.376 18.8715C13.071 18.616 12.153 16.6385 12.153 16.6385C12.153 16.6385 10.5985 14.9175 10.737 13.6845C10.8745 12.453 11.459 10.7575 11.6525 10.5015C11.8475 10.2455 11.181 10.5275 10.9585 10.6045C10.737 10.682 9.81846 11.272 9.20746 10.3215C8.59646 9.372 8.56896 8.626 8.95846 8.4215C9.34646 8.2165 9.59746 8.4215 10.43 8.8845C11.265 9.347 11.459 9.526 11.708 9.45C11.9585 9.3715 11.6855 9.031 11.514 8.884ZM14.349 8.884C14.349 8.884 16.3205 7.164 16.794 7.164C17.2665 7.164 18.0435 8.0615 18.295 8.7035C18.5445 9.3465 18.85 10.5275 17.5715 11.117C16.293 11.7075 16.0995 11.8375 16.0425 12.144C15.987 12.453 15.933 13.069 16.4315 13.479C16.9315 13.8895 18.071 14.916 17.627 16.1235C17.182 17.331 16.182 19.128 14.487 18.8715C12.7915 18.616 13.7095 16.6385 13.7095 16.6385C13.7095 16.6385 15.264 14.9175 15.1265 13.6845C14.987 12.453 14.4035 10.7575 14.2095 10.5015C14.0145 10.2455 14.681 10.5275 14.905 10.6045C15.127 10.682 16.043 11.272 16.6545 10.3215C17.267 9.372 17.294 8.626 16.9045 8.4215C16.5155 8.2165 16.2655 8.4215 15.4335 8.8845C14.599 9.347 14.404 9.526 14.1545 9.45C13.9025 9.3715 14.1765 9.031 14.349 8.884ZM12.988 23.238C12.988 23.0335 13.1265 22.057 13.461 22.1335C13.797 22.21 14.0975 23.11 14.116 22.544C14.132 21.979 15.182 20.6185 15.237 20.2585C15.294 19.8995 14.9335 19.8995 14.098 19.7055C13.2645 19.509 12.9885 18.718 12.9885 18.718H12.8755C12.8755 18.718 12.5985 19.509 11.7645 19.7055C10.9305 19.9 10.5695 19.9 10.6255 20.2585C10.6825 20.618 11.731 21.979 11.7475 22.544C11.7645 23.11 12.066 22.21 12.4 22.1335C12.7375 22.057 12.875 23.0335 12.875 23.238H12.988Z" fill="#0078FF"/>
<path d="M12.9309 13.634C12.9309 13.634 14.4309 13.504 14.3754 14.224C14.3204 14.944 12.9874 16.2545 12.9874 16.2545H12.8744C12.8744 16.2545 11.5409 14.9445 11.4864 14.224C11.4309 13.504 12.9309 13.634 12.9309 13.634ZM12.5279 10.2825C12.5279 10.2825 11.8204 11.4635 11.8064 11.964C11.7924 12.466 11.8204 12.5815 11.9584 12.7485C12.0974 12.9145 13.1814 13.1335 13.9729 12.7485C13.9729 12.7485 14.2649 12.581 14.1119 11.9125C13.9579 11.247 13.3479 10.2825 13.3479 10.2825C13.3479 10.2825 13.5424 11.311 13.5284 11.8375C13.5144 12.363 13.2504 12.324 13.1119 12.3495C12.9739 12.375 12.5229 12.428 12.3994 12.079C12.2789 11.733 12.5279 10.2825 12.5279 10.2825ZM12.3994 5.95502C12.3994 5.95502 12.1249 6.13502 12.1109 6.25152C12.0774 6.4829 12.0404 6.71377 11.9999 6.94402C11.9724 7.11002 11.6949 7.48402 11.7224 7.79152C11.7499 8.10002 12.4034 8.85652 12.8619 8.91002C13.3199 8.96102 13.9934 8.44602 14.1569 7.81802C14.1569 7.81802 14.2379 7.59952 13.8759 7.16402C13.5144 6.72602 13.8804 6.25202 13.4604 5.95552L13.3194 7.52152C13.3194 7.52152 13.0359 7.76652 12.9414 7.83102C12.8484 7.89552 12.6254 7.60252 12.5839 7.43452C12.5429 7.26502 12.3994 5.95502 12.3994 5.95502ZM5.60889 17.4145C5.60889 17.4145 4.94239 17.1445 4.35839 17.8965C3.77489 18.647 3.42139 20.073 3.46289 20.5355C3.46289 20.5355 2.85789 20.4385 2.60839 20.63C2.60839 20.63 3.02439 20.748 3.06789 20.863C3.10889 20.9785 1.62889 21.594 1.46089 22.3465C1.29589 23.097 2.16939 23.4445 2.23289 23.423C2.29639 23.4045 2.08689 23.0195 2.04539 22.6915C2.00389 22.3645 2.37939 21.9035 2.87939 21.979C2.87939 21.979 3.10889 22.8645 3.62989 22.6915C3.62989 22.6915 2.92389 21.672 3.37039 21.3235C3.81689 20.978 4.04539 21.7095 4.04539 21.7095C4.04539 21.7095 4.56839 22.9615 4.23439 24.175L4.12989 24.3295C4.12989 24.3295 4.60939 24.1355 4.85989 23.5395C4.85989 23.5395 5.71389 24.272 6.17289 25.426C6.63189 26.5835 6.63189 27.064 6.65239 27.1415C6.67339 27.217 6.81839 27.988 6.96489 26.8135C7.11089 25.6385 7.06939 24.579 7.75739 24.098C8.44489 23.617 8.56989 23.655 8.84089 23.829C9.11139 24.002 9.42439 24.233 9.71539 24.002C10.0069 23.77 9.79889 23.135 9.31989 23.1545C8.84089 23.1735 7.98989 22.8055 6.69739 24.309C6.69739 24.309 6.11339 24.098 5.59339 22.923C5.07239 21.749 4.27989 19.534 4.92589 18.2055C4.92589 18.2055 5.33939 18.591 5.73389 18.1855C6.13039 17.781 5.60889 17.4145 5.60889 17.4145ZM21.5909 6.52002C21.5909 6.52002 22.0074 5.87952 22.5624 6.13502C23.1189 6.39252 23.0349 7.13602 23.0349 7.13602C23.0349 7.13602 25.5349 9.37102 25.0644 11.1675C25.0644 11.1675 24.9819 11.5275 24.4244 11.784L24.3704 12.3745C24.3704 12.3745 23.7304 12.4525 23.8699 12.8885C24.0089 13.326 24.2294 15.2505 24.1474 16.33C24.0639 17.407 24.1474 18.205 24.1474 18.205C24.1474 18.205 25.0639 18.281 24.9539 19.103C24.8414 19.9255 23.5914 19.8225 23.2304 19.2825C22.8694 18.7445 22.2029 16.2545 19.8959 16.6895C19.8959 16.6895 20.3299 15.38 23.0259 16.459C23.0259 16.459 23.6644 10.988 19.9674 10.038C19.9674 10.038 20.7744 9.70602 21.9424 10.0655C21.9424 10.0655 22.1079 9.39602 23.1094 9.37152C23.1094 9.37152 22.7864 7.88152 21.5349 7.16402C21.5349 7.16402 20.7559 7.29152 20.5629 6.90602C20.3689 6.52002 21.5909 6.52002 21.5909 6.52002Z" fill="#0078FF"/>
<path d="M24.9799 13.094C25.2799 13.094 25.4264 13.53 25.3694 13.814C25.3144 14.0955 24.9799 14.7905 24.9799 14.7905C24.9799 14.7905 24.9534 14.1475 24.8139 13.943C24.6754 13.735 24.3979 13.094 24.9799 13.094ZM20.2709 17.4145C20.2709 17.4145 20.9384 17.1445 21.5219 17.8965C22.1054 18.647 22.4584 20.073 22.4169 20.5355C22.4169 20.5355 23.0209 20.4385 23.2724 20.63C23.2724 20.63 22.8549 20.748 22.8139 20.863C22.7729 20.9785 24.2504 21.594 24.4189 22.3465C24.5854 23.097 23.7104 23.4445 23.6469 23.423C23.5839 23.4045 23.7934 23.0195 23.8349 22.6915C23.8769 22.3645 23.5009 21.9035 23.0009 21.979C23.0009 21.979 22.7729 22.8645 22.2504 22.6915C22.2504 22.6915 22.9564 21.672 22.5089 21.3235C22.0629 20.978 21.8334 21.7095 21.8334 21.7095C21.8334 21.7095 21.3144 22.9615 21.6469 24.175L21.7509 24.3295C21.7509 24.3295 21.2709 24.1355 21.0214 23.5395C21.0214 23.5395 20.1674 24.272 19.7089 25.426C19.2504 26.5835 19.2504 27.064 19.2299 27.1415C19.2089 27.217 19.0624 27.988 18.9164 26.8135C18.7694 25.6385 18.8119 24.579 18.1249 24.098C17.4374 23.617 17.3114 23.655 17.0404 23.829C16.7709 24.002 16.4564 24.233 16.1664 24.002C15.8734 23.77 16.0824 23.135 16.5614 23.1545C17.0404 23.1735 17.8919 22.8055 19.1834 24.309C19.1834 24.309 19.7669 24.098 20.2884 22.923C20.8094 21.749 21.6014 19.534 20.9549 18.2055C20.9549 18.2055 20.5419 18.591 20.1449 18.1855C19.7499 17.781 20.2709 17.4145 20.2709 17.4145Z" fill="#0078FF"/>
</svg>
